<svg xmlns="http://www.w3.org/2000/svg" xml:space="preserve" id="Ebene_1" x="0" y="0" version="1.1" viewBox="0 0 273.4 58.6"><style>.st1{fill:#1d1d1b}</style><path fill="#fff" d="M54 18.7h22.6v22.8H54z"></path><path d="M16.1 57.4c.2.1.4.2.6.4.3-.3.6-1.1.5-1.7-.6-.1-1 .7-1.1 1.3m1.3-2.1c.2.4.3 1 .2 1.4.1 0 .2 0 .2.1.2-.4.3-1.3 0-1.9-.1 0-.4.1-.4.4m1.2.4c.2-.6.1-1.3-.1-1.6-.1-.1-.4.1-.4.3.2.3.3.9.3 1.3h.2m14.3-.8c.3 0 .5.2.7.3.1-.2.5-1.1.3-1.6-.5 0-1 .9-1 1.3m1.3-2c.1.2.3.7.3 1.1h.2c.2-.6.1-1.4-.1-1.6-.1-.1-.3.3-.4.5m1.2-.4c.1-.3 0-1-.2-1.2-.1-.1-.3.2-.3.4.1.2.3.5.4.8h.1M22.3 34.7c-.8.3-1.8 1-1.8 1.2-.1.4-.1 1.1-.1 1.5.5-.3.7-.8 1.3-1.3 1.1-.8 1.6-.9 1.5-1.1-.2-.2-.7-.3-.9-.3m11.4 15.5c-1.6-.2-3.1 1.3-4.1.6-.5-.3-1.1-.9-1.5-1.6-.3-.4-1.1-1.6-1-2.1 0-.2.3-.3.9-.7 1-.6 1.8-1.2 2.6-1.9 1-.8 2.5-2 2.5-3.5 0-1.1-.7-2.2-1.3-2.9-1-1.2-2.6-2.4-4.2-3.3-.7-.4-2-1.1-2.8-1.4-.8.4-1.2.6-1.9.9.5.2.9.5.8.8-.1.2-.2.2-.8.6-.3.2-.8.6-1 .7-.4.4-.7.8-1.1 1.3-.2.3-.4.4-.6.5v.7c2.6.1 5 .8 6.1 2.3.2.2.4.6.5.8.5 1.3-.4 2.4-1.1 2.9-.7.5-2.4.8-2.8 1.2-.4.3-.4.9-.8 1.5-.2.2-.4.4-.7.5.1.3.7.5 1.1.5.2-.1.3-.2.5-.5.1-.2.2-.5.2-.8 0-.1.1-.2.2.1.3 1.3-1.3 1.5-1 3 .3-.2.7-.4 1.2-.3.1-.3.3-.4.4-.6.1-.1.2-.3.2-.7 0-.1.1-.1.2.2.2 1-.9 1.2-.4 2.7.3-.2.7-.3 1.1-.3.1-.2.4-.4.3-.9 0-.1.1-.2.2.1.2.7-.4 1-.1 1.9 1.1-.4 1.4.3 1.8 1 .3.4.6.9.9 1.1.7.6 2.8.1 4.3.2.1-.8.6-1.6 1.3-1.7-.3-1-1.7-1.3-2.4-.6-.1.1 0-.2.2-.3.6-.5 1.8-.4 2.4.4.1-.3.3-.5.5-.5-.5-1-1.9-1.3-2.7-.6-.1 0-.1-.1.1-.3.6-.5 1.9-.5 2.7.3.1-.3.2-.5.4-.5-.2-.4-.8-.8-1.3-.8m8.6-22.1c-.5.3-.5 1.1-.4 1.6h.7c.1-.5 0-1.3-.3-1.6m.9.3c0-.6-.3-1.4-.7-1.7-.2 0-.2.4-.2.7.3.3.6.7.7 1 .1.1.1 0 .2 0m-.5-2.1c.2.2.5.6.6.9h.1c0-.4-.2-1.2-.6-1.5-.1 0-.2.4-.1.6m-2-13.8c-.3-.5-1-.7-1.4-.7-.1.5.5 1.1 1 1.2.1-.3.3-.5.4-.5m-.9-1.3c-.3-.3-1.1-.7-1.7-.5 0 .2.3.5.5.7.3-.1.7-.2 1.1-.1.1 0 .1-.1.1-.1m-3.2 1.5c-.2-.6-.2-1 .1-1.5.1-.2.4-.5.6-.7-.3-.1-.4-.2-.5-.4-1.7.9-.8 2.7-1 4.2-.1 1-1.3 1.3-2.2 1.8-.7.4-1.4.9-1.9 1.4.9 2.1.3 2.5 1.3 3.5-.2.2-.5.3-.7.3 0 .9-.1 1.7-.3 2.4.7-.3 1.3.2 1.8-.4-.6-.4-.6-1.2-.4-1.6.1-.2.2-.2.2-.1v.3c.3.1 1 .1 1.4-.2-.8-1.3.7-2.4 1.8-3.2.8-.5 1.9-1 2.4-1.8.7-1 .4-2.1.9-3.5-.6-.3-1.3-.8-1.2-1.6-.6.1-1.3.8-.9 2 .1.2-.1.1-.2 0-.5-.9-.1-1.9.5-2.2-.3-.2-.6-.6-.5-.8-.9.3-1.2 1.1-1 2.1 0 .3-.1.3-.2 0m1.9-2.7c-.3-.1-.9-.2-1.3 0-.1.1 0 .3.4.4.3-.1.6-.2.9-.2-.1-.1-.1-.2 0-.2m-11-1.5-.1.1c-.1.1-.2.3-.4.4h.6c0-.1-.1-.5-.1-.5m-3.4.5c.2.7 1.4 0 2.4 0 .3-.2.5-.5.7-.7-1.2-.2-2.5-.1-3.1.7m3.6-2.1c.1.2.2.5.2.5 0 .1 0 .2.1.2.2-.1.4-.5.5-.7h-.8m-3.8 1.5c.8-.7 2-.9 3.6-.6 0-.3-.2-.7-.3-.9-1.7-.3-3.3-.3-3.3 1.5M19 .7c-2.5-.1-3.4.3-5 .4-.3 0-.5-.1-.6-.1-.1.2-.1.6 0 .8-.9.5-1 1.5-2.1 1.3-.1.3.1.7.3.9.1 0 .4-.1.3 0-.5 1.3-.4 1.8-.5 2.5-.1.4-.6.7-1.1.8 0 .3.2.9.7.9.3-.6.7-.7.6-.5-.1.3-.2.8-.2 1.2 0 1.3.3 2.5.7 3.5.8 1.8 1.8 3.3.4 4.1.2.4 1.1.7 1.7.5.3-.7.1-1.2.1-1.4 0-.1 0-.1.1 0 .4.3.4 1 .3 1.5-.2 1.4-1.4 3.1-.6 4.7.2-.2.6-.4 1-.5.1-.8.3-1.4.8-1.8.3-.2.3-.1.3 0-.6.7-.6 2.1-.4 3.3.2 1.5-.3 2.4-.8 2.7.6.4 1.5.1 2-.1.4-.2.9-.6 1.1-1.1-.5-.9-.6-1.8-.4-2.3.1-.5.4-.6.3-.4-.3 1.9 1.5 2.8 1.5 4.7 1-.3 1.4-1.5 1.3-2.6 0-.1.1-.1.2.1.5 1.5-.4 3.7-2.3 3.5.3-.9 0-2-.3-2.5-.2.5-.7.9-1.1 1.1-.1.5-.2.9-.2 1.3-.3 1.3-.8 2.1-1.6 3-1.7 1.8-2.4 1.9-3.5 3.5-.2.3-1 .7-1.4.8-3.4 1.3-6.3-.5-6.1-4.1 0-1.4.8-3.4 1.4-4.8 1.8-4.1 3.5-7.5 3.7-10.6.2-2.6-.9-5.1-3.6-5.1-1.8 0-3.6 1.5-3.6 4.4 0 1.8 0 3.1-.7 4.3-.2.3-.2.4-.5.7 1 .2 2.2-.4 2.9-1.3.1.1.2.3.2.5.8-.7.9-2.1.6-3.2.5.1 1-.2 1.1-.6-1.2-.2-1.9-1.3-1.8-2.5.1-.7.7-1.5 1.6-1.6 2.2-.3 2.9 2 2.9 4.1 0 2.7-1.7 5.7-3.2 8.7-1.2 2.4-2.5 4.9-2.6 7.3C2.8 33.4 4 38 10.4 37c.3-.7.6-1 .8-1 .1 0 0 .2 0 .4-.1.8-.2 1.3-.1 2.1.1 1.7.8 3.3.9 4.5.1 1.9-.9 2.1-2.4 2.3-.7.1-1.6.1-2.2.3-.4.2-.6 1-.9 1.5-.5.6-.9.8-1.5.9.2.4.8.7 1.4.8.2-.2.5-.6.6-1.1 0-.1.1-.2.1.2 0 1-1 2.1-2 2.3.2.4.9.8 1.5.7.5-.2.8-.7 1-1.3 0-.2.2-.1.1.1 0 .6-.3 1.1-.7 1.5-.4.4-.7.9-.5 1.5.3-.1.8-.2 1.2-.1.2-.2.5-.5.6-.9 0-.1.2-.1.2.2-.1.8-.8 1.2-.6 2 1.6-.8 1.8 2.1 3.1 3 1.1.7 3 .3 4.8.4.1-.8.6-1.6 1.3-1.7-.3-1.1-1.6-1.1-2.2-.7-.1.1-.1-.1.1-.2.7-.5 1.8-.4 2.3.2.1-.2.4-.4.6-.4-.5-1.1-1.7-1.3-2.6-.7-.2.1-.1-.1.2-.3 1.1-.6 2.2-.1 2.7.7.1-.2.3-.4.5-.4-.3-.7-1-1.2-2-1.2-1.7 0-3.1 1.1-3.7.3-.7-1-1.5-2.7-1.6-4.8 0-.2 0-.3.2-.4 1.3-.3 2.5-.5 3.6-.9 1.2-.4 2.4-.8 3.2-1.8.9-1 1.1-3.4 1.3-5.3.1-.9.2-2.3.2-3.3.1-1.6.5-2.6 1.1-2.9.2-.1.2 0 .1.2-.2.3-.3.8-.4 1.2.3-.2.6-.5.9-.6.8-.4 1.4-.7 2.3-1.2.9-.5 1.7-1.1 2.3-1.5.4-.3.9-.7 1.3-1.2-.1-.1-.2-.3-.2-.4-.4.6-1.4 1.1-2.1 1 .2-.6 0-1.4-.5-1.9-.6-.5-.9-.7-1.3-1.1-1.2-1.3-.2-4-1.4-5.6-.1-.2.1-.1.3.1.7.7.8 1.7 1 2.7.1.8.2 1.7.5 2.2.7 1 2.1 1.2 2.1 2.8.5-.1 1.1-.6 1.1-1 0-.2-.1-.6-.4-.8-.1 0 0-.1.2-.1.4.1.5.5.7.9.2.3.3.6.6.9.4.5 1 .7 1 1.5.4-.1.9-.5 1-1.1-.2-.6-.1-1.2-.7-1.6-.4.1-.4 0-.1.1.8.3.7 1.3 1.1 1.8.3.3.6.6 1.1.8.1-.5.3-1 .7-1.3 0-.3-.1-.4-.4-.7-.1-.1-.1-.2.3 0 .7.4.5 1.4 1.5 1.8.3-.8 1.3-.6 2.3-.3.5.1 1.1.3 1.6.3 2 .1 2.3-1.2 4-1.6-.1-.9.1-1.6.6-2-.7-.8-1.9-.4-2.3.2-.1.1-.1-.1.1-.3.5-.8 1.6-.9 2.2-.5 0-.3.1-.7.3-.7-.5-.5-1.8-.7-2.6.2-.1.1-.1-.1 0-.3.5-.7 1.8-.9 2.6-.3 0-.2.1-.5.3-.6-.4-.4-1.1-.7-1.7-.6-2 .2-2.5 2.4-4.6 2.2-.5 0-1-.4-1.9-.7-.5-.2-1.1-.3-1.7-.5-1.5-.4-2.9-.4-3.7-1.4-.3-.3-.5-.8-.6-1.4 0-.3.1-.4.1-.2.5.9 1 1.8 2.1 2 .5-.9.8-2.4.8-3.7-.5-.2-.5-.5-.7-.5.1 1-.3 2.1-.6 2.4-.1-.9-.9-1.6-1.7-1.9-.1 0-.1-.2.3-.2.3 0 1 .2 1.3.6.3-1 .1-1.9-.2-2.8-.2-.5-.6-1.1-1.1-1.5-.1-.1-.1-.2.3 0 .9.5 1.6 1.4 1.7 2.6.5.3.7.9 1.3.7-.6-.6-.3-1.7-1.2-3.3-.5-.8-1.1-1.4-2.2-1.9-1.3-.6-2.9-1.1-4-1.5-1.1-.4-1.7-.9-1.8-2.4-.4-.2-.6-.4-.8-.7-.2.2-.3.5-.3.8-.7-.3-1.1-1-1.1-1.7-.2 0-.7 1.3-2.3.7 1-1-.4-1.8.7-3 .2-.2.5-.3.4-.1-.9 1.3.2 1.8-.2 2.7 1 .1 1.1-1.3 2-1.2-.1.6 0 1.4.4 1.7.2-.4.5-.6.9-.8.2.7.7 1.1 1.3 1.3 1 .2 2.1-.4 2.9-.2.5.1.9.3 1.1.7.4-.4.8-1.8.6-1.9-1.5-1-4 1.1-4.8-.6-.1-.3-.2-.7-.1-1 .2-1.4 1.2-2.1 2.8-2 .7.1 2.4.4 2.8.1.4-.3.3-1.3 0-1.7-.7-.1-1.2-.4-1.2-.8 0-.3.3.3.9.1.2-.1.2-.7.1-.7-.9-.3-2.2-.6-3.3-.4-.2.5-.6.6-.6.9-.1.7-.3 1.2-.5 1.4-.1.1-.1 0 0-.2.1-.3.2-.7 0-.9-.3-.6-1.4-.5-1.4-1.1 0-.3.1-.2 1.2 0 .5.1.5.1.6 0 .2-.4-.4-.6-1-.8-1.7-.4-3.2-.3-3.8-.1.6.4.8 1 .6 1.3-.1.2 0-.3-.8-.8s-2.2-.6-2.5-.2c-.2.2-.2.9-.2 1.2.1.5.2 1 .8 1.4.8.5 1.3.2 1.2.4-.2.3-1.2.3-1.8-.2-.5-.4-.9-.9-1-1.6-.1-.5 0-1.3.2-1.6.3-.4 1.2-.5 2.1-.3.7-.2 1.6-.3 2.3-.3-.3-.4-1.3-.6-2.1-.6m9.9 6.2c-.2.3-.5.8-.8.9.5.1 1.4.3 2 .2.8-.1 1.3-.8.8-1.5 0-.1 0-.2.2-.1 1 .5.8 1.9-.2 2.3-1 .3-2.2-.2-3-.3.1.2.1.5.2.7.2.1.8.2.8.5-.1.7-.2 1.5-.5 2.1-.2.6-.7 1.2-1.2 1.3.1-1.9-2-.6-3.2-1-.1 1.4 2 1.7 4.3 2.7 1.2.5 2.4 1.1 3.1 2.3.9-.7 1.7-1.1 2.9-1.7.4-.2.9-.4 1-.9.1-.3 0-1.2 0-1.8-.4-2.6 2.2-4.1 4-2.8 0 .1-.1.2-.1.3.5.1 1.1.5 1.5.8-.1.1-.2.3-.3.4.4.2 1 .7 1.2 1.1-.2.2-.5.6-.6.8-.3.7-.3 1.5-.5 2.3-.1.7-.4 1.4-.8 1.9-.9 1.1-2.9 1.7-3.9 2.9-.3.4-.3 1.3.2 1.5-.5.7-1.5.8-2 .7.1.4.6.7.8.7-.8 1.6-2.3.8-3 1.2-.1.2-.1.3-.2.5 1.2.2 2.4.6 3.2.9.6.3 1.6.8 2.5.5.5-.2 1.1-.8 1.6-1.1.7-.5 1.4-1.1 2.8-.9 1.2.1 2.5 1.3 2.4 3.2h-.4c.1.3.1.9.1 1.3h-.4c0 .3-.1 1.1-.3 1.5-.3-.1-.9-.2-1.3-.1-1.3.4-2.1 1.8-4.2 1.6-.5 0-1.1-.1-1.6-.3-.5-.1-1.1-.3-1.4-.3-.4.1-.4.3-.5.7-1.1.1-1.6-.4-1.8-.9-.4.3-.4.8-.4 1.3-.8-.1-1.5-.4-1.9-.9-.3.6-1 1.1-1.9 1.1.1-.4 0-.9-.4-1.3-.5.6-1.1 1.1-1.9 1.7 1.6.8 3.3 1.8 4.8 3.1 1.4 1.2 3 3 3.1 4.9.1 2-1.4 3.2-2.6 4.1-1.2.9-2.1 1.6-3.3 2.3-.1.1-.1.1-.1.2.3.8.7 1.5 1.1 2.1.3.3.8.9 1.3.9.8 0 1.9-.7 2.8-.8 1.9-.2 3.4 1.4 2.7 3.5.1-.2-.1-.2-.2-.2 0 .6-.2 1.3-.4 1.7-.2-.1-.3-.2-.5-.2-.1.5-.4 1.2-.7 1.6-.3-.2-.7-.3-.9-.4-2.8-.1-4 .2-5-.4-.3-.2-.7-.7-.9-1.1-.3-.4-.6-1-.9-1.1-.4-.1-.6.1-.8.3-.3-.3-.4-.9-.4-1.3-.4-.1-.8.2-1 .5-.3-.4-.5-1.1-.4-1.8-.5-.1-.9.2-1.2.5-.5-.8-.4-1.6-.1-2.1-.6-.1-1.2-.6-1.4-1.2 1.1-.5 1.3-1.2 1.6-1.9.5-1 3.5-1.1 3.9-2.6.1-.5-.1-1.1-.2-1.4-.8-1.5-3.4-2-5.7-2-.1 1.3-.2 2.3-.5 3.3-.2.9-.6 1.7-1.2 2.3-.7.8-2 1.3-3.2 1.6-1.2.3-2.2.6-3.4.9-.2 0 .1 2.1.7 3.5.3.7.5 1.1 1.1 1 .8-.1 1.8-.6 2.8-.6 2 .1 3.4 2.2 2.3 4.3-.1-.1-.2-.1-.3-.1-.1.5-.3 1-.5 1.3-.2-.1-.3-.2-.4-.2-.2.6-.6 1.1-.9 1.3-.2-.2-.6-.5-1.1-.5-3-.1-4.3.3-5.5-.8-.4-.4-.7-.9-1-1.5-.5-1.2-.9-1.8-1.8-1-.4-.5-.4-1.2-.2-1.7-.4-.1-.9 0-1.2.2-.3-.6-.3-1.5.1-1.9-.8-.1-1.6-.8-1.7-1.6.5 0 1.1-.2 1.4-.6-.8-.2-1.4-.8-1.5-1.7.5 0 1.1-.1 1.4-.4.7-.6.5-1.7 1.6-2.1 1.3-.4 4 .2 4-1.5 0-.7-.5-2-.7-2.9-.2-.9-.4-1.8-.4-2.8-6.2.6-8.2-3.5-8-6.8.1-2.7 1.1-4.6 2.7-7.7 1.9-3.8 3.4-6.6 3.2-9.2-.1-1.2-.5-2.6-1.4-2.9-1.7-.5-2.4 1.5-1.5 2.5.3.3.8.6 1.5.5 0 .9-.4 1.4-1.1 1.6.2 1.6-.5 3-1.6 3.7 0-.2-.1-.3-.1-.5-1 .6-2.8 1.3-4 .5.3-.4.5-.6.8-.9.5-.6.8-1.4.9-2.3.1-.9.1-1.8.1-2.5.1-2.3 1.6-4.8 4.5-4.6 2.4.2 3.8 2.1 3.9 4.8.1 3-1.4 6.5-3.5 11.4-.8 1.9-1.6 3.9-1.5 5.5.1 1.9 1.4 3.2 3.2 3.3 1.1 0 2.5-.5 3-1.1.1-.1.2-.2.5-.6 1.4-1.9 4.2-3.1 4.4-6.1-1 .3-2.2-.3-2.4-1 .8-.3 1.5-1 1.2-2.7v-.6c-.5.1-.9.4-1.1.8-1.5-1.6-.7-3.6-.2-5-1.2.1-2.1-.8-2.3-1.6.6-.1.9-.5.9-1 0-.4-.3-1-.5-1.5-.7-1.4-1.3-2.8-1.2-4.8-.9-.5-1.3-1.5-1.2-2.3.7-.1 1.2-.4 1.3-.9 0-.4.1-1.1.2-1.5-.3-.3-.7-1.1-.3-2.1.3.1.8.1 1.1-.1.1-.1.4-.5.8-.8-.1-.3 0-1 .3-1.4.2.1.5.2.9.2 1.4.1 4.9-.9 7.4.1.5.2 1 .5 1.3.8.5.1 1.1.2 1.8.3 1.2.3 1.2.5 1.7.6.2 0 .7.1 1.2.1.6 0 2.1.3 2.5.7.3.3 0 .9 0 1.5s.3 1.5-.1 2.2c-.2.3-.5.4-.7.4" class="st1"></path><path d="M20.3 3.9c-.1.4-.4.4-.4.2 0-.7-.8-1.1-1.6-1.2-.2 0 0-.2.2-.2.8-.1 2 .4 1.8 1.2M13.5 10.6c-.3 1.6.6 1.7.6 2.9.6.1 1.2-.3 1.6-.9.1-.1.1 0 .1.2-.2.8-1.3 1.6-2.3 1.3.5-1.1-.9-2.1-.2-3.4.1-.2.2-.2.2-.1M16.3 15c.1-.1.2-.1.1 0-.8 2.7 1.2 2.8 1.3 5.1.8-.2 1.2-.9 1.5-1.7.1-.2.2-.1.2.2 0 .6-.2 1.1-.4 1.4-.3.5-1.1 1.1-2.1 1 .6-2-1.1-2.7-1.1-4.5.1-.5.2-1.2.5-1.5M26.8 19.7c-.1-.1-.1-.3.3.1 1.6 1.5 0 4 1.1 5.2-1.5.6-2.9-.4-3-1.3-.1-.4.2.1.6.4.3.2 1 .5 1.4.4-.5-1.5.8-2.9-.4-4.8" class="st1"></path><path fill="#009fe3" d="M53.7 18.4v23.4h23.4"></path><path fill="none" stroke="#1d1d1b" stroke-width=".599" d="M54 18.7h22.8v22.8H54z"></path><path d="M267.3 33.5h6.1v-1.8H270l3.2-3.6v-1.5h-5.8v1.8h3l-3.2 3.4v1.7zm-4.9-5.2h1.1c.4 0 .7.1.7.5s-.3.6-.7.6h-1.1v-1.1zm-2.1 5.2h3.9c1.2 0 2.4-.7 2.4-2.1 0-1-.6-1.5-1.2-1.7.5-.3.8-.7.8-1.3 0-.7-.4-1.7-2.2-1.7h-3.7v6.8zm2.1-2.9h1.3c.5 0 .7.2.7.6 0 .5-.4.7-.8.7h-1.2v-1.3zm-6.9 2.9h2.1v-5.1h1.9v-1.8h-5.9v1.8h1.9v5.1zm-11.1 0h1.9v-2.6c0-.8.4-1 .8-1 .6 0 .6.4.6 1v2.6h1.9v-3.4c0-1.1-.8-1.7-1.7-1.7-.8 0-1.2.3-1.6.7v-2.4h-1.9v6.8zm-.9-3.1c-.1-1.4-1.2-2-2.5-2-1.5 0-2.7 1-2.7 2.6s1.2 2.6 2.7 2.6c.7 0 1.3-.2 1.7-.5.5-.4.8-.9.9-1.6h-1.8c0 .4-.3.7-.7.7-.7 0-.8-.6-.8-1.2s.1-1.2.8-1.2c.2 0 .4.1.5.2.1.1.2.3.2.5h1.7zm-6.2-3.7h-1.9V28h1.9v-1.3zm-1.9 6.8h1.9v-5h-1.9v5zm-4.4 0h1.9v-2c0-1.1.4-1.5 1.2-1.5.4 0 .6.1.7.1v-1.7c-.2 0-.4-.1-.6-.1-.7 0-1.1.3-1.4.9v-.8H231v5.1zm-5.7-5.5h1.6v-1.2h-1.6V28zm2.2 0h1.6v-1.2h-1.6V28zm2.3.5h-1.9v2.6c0 .8-.4 1-.8 1-.6 0-.6-.4-.6-1v-2.6h-1.9v3.4c0 1.1.8 1.7 1.7 1.7.8 0 1.3-.3 1.6-.8v.6h1.8v-4.9zm-12.1 5h6.1v-1.8h-3.4l3.2-3.6v-1.5h-5.8v1.8h3l-3.2 3.4v1.7zm-3.7-2.1c0-1.9-.9-3-2.8-3-1.6 0-2.6 1.2-2.6 2.6 0 1.7 1.2 2.6 2.8 2.6 1.1 0 2.2-.5 2.6-1.6h-1.8c-.2.2-.5.4-.8.4-.6 0-.9-.4-1-1h3.6zm-3.6-1c.1-.5.4-.8 1-.8.5 0 .8.4.8.8h-1.8zm-4.7 3.1h1.9v-6.8h-1.9v6.8zm-1.2-5h-1.9v2.6c0 .8-.4 1-.8 1-.6 0-.6-.4-.6-1v-2.6h-1.9v3.4c0 1.1.8 1.7 1.7 1.7.8 0 1.3-.3 1.6-.8v.6h1.8v-4.9zm-11.5 5h1.9v-2.6c0-.8.4-1 .8-1 .6 0 .6.4.6 1v2.6h1.9v-3.4c0-1.1-.8-1.7-1.7-1.7-.8 0-1.2.3-1.6.7v-2.4H193v6.8zm-.9-3.1c-.1-1.4-1.2-2-2.5-2-1.5 0-2.7 1-2.7 2.6s1.2 2.6 2.7 2.6c.7 0 1.3-.2 1.7-.5.5-.4.8-.9.9-1.6h-1.8c0 .4-.3.7-.7.7-.7 0-.8-.6-.8-1.2s.1-1.2.8-1.2c.2 0 .4.1.5.2.1.1.2.3.2.5h1.7zm-6-.4c0-1.3-1.3-1.6-2.4-1.6-1 0-2.3.3-2.3 1.6 0 .9.6 1.3 2 1.6.9.2 1 .2 1 .5s-.4.4-.6.4c-.2 0-.4-.1-.5-.1-.1-.1-.2-.3-.2-.4h-1.8c0 1.3 1.3 1.8 2.5 1.8s2.5-.4 2.5-1.8c0-.8-.6-1.2-1.2-1.4-.6-.2-1.4-.2-1.7-.4-.1 0-.2-.1-.2-.3 0-.3.3-.4.6-.4.2 0 .3 0 .4.1.1.1.2.2.2.4h1.7zm-5.7 0c0-1.3-1.3-1.6-2.4-1.6-1 0-2.3.3-2.3 1.6 0 .9.6 1.3 2 1.6.9.2 1 .2 1 .5s-.4.4-.6.4c-.2 0-.4-.1-.5-.1-.1-.1-.2-.3-.2-.4h-1.8c0 1.3 1.3 1.8 2.5 1.8s2.5-.4 2.5-1.8c0-.8-.6-1.2-1.2-1.4-.6-.2-1.4-.2-1.7-.4-.1 0-.2-.1-.2-.3 0-.3.3-.4.6-.4.2 0 .3 0 .4.1.1.1.2.2.2.4h1.7zm-8.2 3.5h1.9v-3.8h1v-1.2h-1c0-.5.1-.6.6-.6.2 0 .3 0 .5.1v-1.3h-.9c-.8 0-1.2.1-1.7.5-.4.4-.4.9-.4 1.4h-.8v1.2h.8v3.7zm-1.5-5h-1.9v2.6c0 .8-.4 1-.8 1-.6 0-.6-.4-.6-1v-2.6h-1.9v3.4c0 1.1.8 1.7 1.7 1.7.8 0 1.3-.3 1.6-.8v.6h1.8v-4.9zm-9.6 5h1.9v-2c0-1.1.4-1.5 1.2-1.5.4 0 .6.1.7.1v-1.7c-.2 0-.4-.1-.6-.1-.7 0-1.1.3-1.4.9v-.8h-1.8v5.1zm-.9-2.1c0-1.9-.9-3-2.8-3-1.6 0-2.6 1.2-2.6 2.6 0 1.7 1.2 2.6 2.8 2.6 1.1 0 2.2-.5 2.6-1.6h-1.8c-.2.2-.5.4-.8.4-.6 0-.9-.4-1-1h3.6zm-3.6-1c.1-.5.4-.8 1-.8.5 0 .8.4.8.8h-1.8zm-6.7-2.1h1.1c.4 0 .7.1.7.5s-.3.6-.7.6h-1.1v-1.1zm-2.1 5.2h3.9c1.2 0 2.4-.7 2.4-2.1 0-1-.6-1.5-1.2-1.7.5-.3.8-.7.8-1.3 0-.7-.4-1.7-2.2-1.7h-3.7v6.8zm2.1-2.9h1.3c.5 0 .7.2.7.6 0 .5-.4.7-.8.7h-1.2v-1.3zm-6.2.8c0-1.9-.9-3-2.8-3-1.6 0-2.6 1.2-2.6 2.6 0 1.7 1.2 2.6 2.8 2.6 1.1 0 2.2-.5 2.6-1.6h-1.8c-.2.2-.5.4-.8.4-.6 0-.9-.4-1-1h3.6zm-3.6-1c.1-.5.4-.8 1-.8.5 0 .8.4.8.8h-1.8zm-7.9 3.1h1.9v-2.6c0-.8.4-1 .8-1 .6 0 .6.4.6 1v2.6h1.9v-3.4c0-1.1-.8-1.7-1.7-1.7-.8 0-1.2.3-1.6.7v-2.4h-1.9v6.8zm-1-3.1c-.1-1.4-1.2-2-2.5-2-1.5 0-2.7 1-2.7 2.6s1.2 2.6 2.7 2.6c.7 0 1.3-.2 1.7-.5.5-.4.8-.9.9-1.6h-1.8c0 .4-.3.7-.7.7-.7 0-.8-.6-.8-1.2s.1-1.2.8-1.2c.2 0 .4.1.5.2.1.1.2.3.2.5h1.7zm-6-.4c0-1.3-1.3-1.6-2.4-1.6-1 0-2.3.3-2.3 1.6 0 .9.6 1.3 2 1.6.9.2 1 .2 1 .5s-.4.4-.6.4c-.2 0-.4-.1-.5-.1-.1-.1-.2-.3-.2-.4h-1.8c0 1.3 1.3 1.8 2.5 1.8s2.5-.4 2.5-1.8c0-.8-.6-1.2-1.2-1.4-.6-.2-1.4-.2-1.7-.4-.1 0-.2-.1-.2-.3 0-.3.3-.4.6-.4.2 0 .3 0 .4.1.1.1.2.2.2.4h1.7zm-5.7-3.3h-1.9V28h1.9v-1.3zm-1.9 6.8h1.9v-5h-1.9v5zm-6.4 0h1.9v-2.6c0-.8.4-1 .8-1 .6 0 .6.4.6 1v2.6h1.9v-3.4c0-1.1-.8-1.7-1.7-1.7-.8 0-1.3.3-1.6.8v-.6h-1.8v4.9zm-6.3 0h1.9v-2.6c0-.8.4-1 .8-1 .6 0 .6.4.6 1v2.6h1.9v-3.4c0-1.1-.8-1.7-1.7-1.7-.8 0-1.2.3-1.6.7v-2.4h-1.9v6.8zm-1-3.1c-.1-1.4-1.2-2-2.5-2-1.5 0-2.7 1-2.7 2.6s1.2 2.6 2.7 2.6c.7 0 1.3-.2 1.7-.5.5-.4.8-.9.9-1.6h-1.8c0 .4-.3.7-.7.7-.7 0-.8-.6-.8-1.2s.1-1.2.8-1.2c.2 0 .4.1.5.2.1.1.2.3.2.5h1.7zm-5.9 1c0-1.9-.9-3-2.8-3-1.6 0-2.6 1.2-2.6 2.6 0 1.7 1.2 2.6 2.8 2.6 1.1 0 2.2-.5 2.6-1.6h-1.8c-.2.2-.5.4-.8.4-.6 0-.9-.4-1-1H98zm-3.6-1c.1-.5.4-.8 1-.8.5 0 .8.4.8.8h-1.8zm-5.9 3.1h2.1v-5.1h1.9v-1.8h-5.9v1.8h1.9v5.1z" class="st1"></path></svg>